<svg width="99" height="57" viewBox="0 0 99 57" fill="none" xmlns="http://www.w3.org/2000/svg">
<path d="M1.57183 21.1712C9.24524 24.7916 17.071 28.1462 24.7443 31.7665C26.1878 32.4525 27.8245 30.7063 26.7999 29.4124C25.0548 26.7875 23.2714 24.3527 21.5262 21.7279C24.6421 22.4539 26.6162 24.4331 28.7795 26.9442C29.7665 27.9337 31.0578 28.8857 32.5405 28.3934C34.8599 27.6741 35.7384 24.2923 36.5391 22.2788C38.56 17.1501 39.9349 11.7922 42.6016 6.89234C45.8014 1.30893 48.1918 4.65675 49.6687 9.1057C51.2972 13.7829 52.127 18.9912 52.4249 23.8948C52.8703 32.4855 52.8967 41.684 56.65 49.5565C58.7351 53.9302 64.8108 58.613 69.6806 55.046C75.6913 50.7205 79.7321 41.4511 80.6913 34.2305C81.4562 30.4305 83.0847 4.6621 90.8655 13.642C96.5587 20.2248 96.4668 32.9578 96.8746 41.2444C96.9493 42.3468 98.6216 42.3869 98.737 41.3228C99.5456 32.886 98.455 23.5723 95.4242 15.5485C93.7191 11.2513 87.8353 5.12444 83.3438 10.2501C78.091 16.2111 78.6487 26.2083 77.7271 33.733C77.2651 38.4836 74.7883 43.4218 72.5787 47.524C67.8546 56.2603 60.7512 52.7546 58.1763 44.9214C55.0713 35.3013 56.491 24.8125 54.7167 14.9656C54.0369 11.4679 52.0753 -0.393316 46.1069 0.283231C39.2262 1.07286 36.7039 12.1307 34.9487 17.4116C35.1011 17.1457 32.3153 26.0745 31.2899 25.2748C30.2646 24.4754 29.4301 23.2202 28.4429 22.2308C26.545 20.3659 24.4935 19.261 22.0995 18.8781C24.3437 17.5506 26.4362 15.9948 28.3769 14.2108C29.3664 13.2237 28.3424 11.436 27.05 11.4724C18.1169 12.1455 10.206 16.0886 1.6511 18.3205C0.320667 18.5468 0.204084 20.5991 1.57183 21.1712ZM17.7667 18.7966C17.082 19.2518 17.2331 19.9742 17.6508 20.3548C17.4601 20.8107 17.4595 21.3048 17.763 21.7613C18.7494 23.2449 19.8117 24.8426 20.7981 26.3262C16.0876 24.1918 11.4528 22.1714 6.74229 20.037C11.9136 18.409 16.9714 16.3628 22.2179 15.3434C20.8104 16.4438 19.2886 17.6202 17.7667 18.7966Z" fill="#181818"/>
</svg>
